/vscmnt/brussel_pixiu_data/_data_brussel/112/vsc11236/PredSimResults/SUBJ07mtu3D/worker4.mot
version=1
nRows=10
nColumns=50
inDegrees=yes
endheader
                time	         pelvis_tilt	         pelvis_list	     pelvis_rotation	           pelvis_tx	           pelvis_ty	           pelvis_tz	       hip_flexion_r	     hip_adduction_r	      hip_rotation_r	        knee_angle_r	       ankle_angle_r	         mtp_angle_r	       hip_flexion_l	     hip_adduction_l	      hip_rotation_l	        knee_angle_l	       ankle_angle_l	         mtp_angle_l	    lumbar_extension	      lumbar_bending	     lumbar_rotation	 ercspn_r/activation	 intobl_r/activation	 extobl_r/activation	    abd_r/activation	    add_r/activation	hamstrings_r/activation	bifemsh_r/activation	glut_max_r/activation	iliopsoas_r/activation	rect_fem_r/activation	  vasti_r/activation	gastroc_r/activation	 soleus_r/activation	tib_ant_r/activation	 ercspn_l/activation	 intobl_l/activation	 extobl_l/activation	    abd_l/activation	    add_l/activation	hamstrings_l/activation	bifemsh_l/activation	glut_max_l/activation	iliopsoas_l/activation	rect_fem_l/activation	  vasti_l/activation	gastroc_l/activation	 soleus_l/activation	tib_ant_l/activation	
          1.07828345	         -5.13903142	          0.04795077	          7.94175815	          1.31550581	          0.85034089	         -0.01190060	         29.84510787	         -2.04919478	         -2.56875556	         -4.72391092	          2.70179482	          0.27407161	        -13.10549798	          0.74101810	          5.51440246	         -7.98172136	          8.58803080	         25.81377713	        -10.34317975	         -1.75244505	         -2.44121654	          0.10699526	          0.14852790	          0.00999999	          0.02916908	          0.10843109	          0.04022113	          0.14155391	          0.06834553	          0.02246553	          0.01391723	          0.00999999	          0.00999999	          0.00999999	          0.41861148	          0.09324499	          0.00999999	          0.00999999	          0.03751570	          0.00999999	          0.01000001	          0.13480080	          0.01788023	          0.08707434	          0.01000006	          0.00999999	          0.15741448	          0.24102265	          0.01391724	
          1.08906629	         -5.13841452	          0.10704306	          7.98218265	          1.33090974	          0.84874638	         -0.01188553	         29.63566587	         -1.89898294	         -2.38298752	         -6.19016142	          2.44493263	          0.25857138	        -13.63799426	          0.71840653	          5.22558349	         -8.90319655	          7.79437008	         27.33704540	        -10.20597983	         -1.36510349	         -2.64217274	          0.09069594	          0.12590163	          0.00999999	          0.02472556	          0.09191304	          0.04390639	          0.13080607	          0.11901265	          0.01904320	          0.01179713	          0.00999999	          0.02041597	          0.01641836	          0.44055292	          0.11167628	          0.00999999	          0.01000000	          0.03180068	          0.01508403	          0.01983711	          0.11426567	          0.01515641	          0.07380971	          0.00999999	          0.00999999	          0.13343446	          0.21434014	          0.01179713	
          1.09984912	         -5.13649914	          0.15095634	          7.97519832	          1.34640321	          0.84734686	         -0.01181198	         29.36716138	         -1.78966024	         -2.20493391	         -7.59401816	          2.09465289	          0.25208741	        -14.01074975	          0.69845800	          4.90347289	        -10.11904548	          6.92951312	         28.80937054	        -10.06735518	         -0.95310387	         -2.82676763	          0.11368097	          0.10672217	          0.00999999	          0.10070951	          0.10279945	          0.04579322	          0.11517693	          0.12503098	          0.01614222	          0.00999999	          0.00999999	          0.01730587	          0.01391723	          0.48531285	          0.12636016	          0.00999999	          0.00999999	          0.02695626	          0.01278618	          0.01681519	          0.09685880	          0.01284753	          0.06256577	          0.00999999	          0.00999999	          0.11310747	          0.18168823	          0.00999999	
          1.11063196	         -5.13514216	          0.20190354	          7.92392589	          1.36180985	          0.84632133	         -0.01165155	         29.10086660	         -1.68785072	         -2.07687098	         -8.96971893	          1.74161429	          0.22931184	        -14.14297509	          0.70710284	          4.55827626	        -11.74389797	          5.95750715	         30.19386424	         -9.94841279	         -0.54654686	         -2.99500009	          0.12271796	          0.09046445	          0.00999999	          0.14888640	          0.12833081	          0.04277755	          0.09763124	          0.15269735	          0.01368316	          0.00999999	          0.00999999	          0.01466955	          0.01179713	          0.50434701	          0.16564089	          0.00999999	          0.00999999	          0.02284983	          0.01600579	          0.01425362	          0.08210363	          0.01089038	          0.05303469	          0.00999999	          0.00999999	          0.09587703	          0.15401042	          0.00999999	
          1.12141479	         -5.13432101	          0.25384741	          7.83599031	          1.37700327	          0.84581381	         -0.01140510	         28.88566494	         -1.57961896	         -1.97068906	        -10.44970598	          1.63517631	          0.20941752	        -13.96123549	          0.73902278	          4.19493624	        -13.88053461	          4.85517398	         31.41948166	         -9.85680508	         -0.14268216	         -3.14891483	          0.13161076	          0.07668338	          0.00999999	          0.18958651	          0.15063259	          0.03898041	          0.08275841	          0.18280347	          0.01159871	          0.00999999	          0.01195054	          0.01243483	          0.00999999	          0.50253920	          0.20301652	          0.00999999	          0.00999999	          0.01936896	          0.02883678	          0.01208227	          0.06959623	          0.00999999	          0.04495556	          0.00999999	          0.00999999	          0.08127143	          0.13054896	          0.00999999	
          1.13219763	         -5.13436175	          0.30773459	          7.71379821	          1.39189179	          0.84594776	         -0.01107985	         28.72427387	         -1.46665228	         -1.87702498	        -12.01476505	          1.72988647	          0.19262192	        -13.40259752	          0.79631277	          3.80875358	        -16.61104457	          3.58764152	         32.36505516	         -9.79573849	          0.25360855	         -3.28782194	          0.14199121	          0.06500168	          0.00999999	          0.21101563	          0.17321526	          0.03801389	          0.07015125	          0.19542211	          0.00999999	          0.00999999	          0.03206073	          0.01054055	          0.00999999	          0.48658960	          0.22955852	          0.00999999	          0.00999999	          0.01641835	          0.05197144	          0.01024170	          0.05899416	          0.00999999	          0.03810717	          0.00999999	          0.00999999	          0.06889079	          0.11066154	          0.00999999	
          1.14298046	         -5.13551433	          0.36758980	          7.55840048	          1.40647998	          0.84676432	         -0.01069146	         28.54192184	         -1.34984825	         -1.78548321	        -13.51416050	          1.94961995	          0.17924170	        -12.43330363	          0.88027774	          3.39650298	        -19.97055346	          2.10740436	         32.87492798	         -9.75652450	          0.63535278	         -3.40950574	          0.14162635	          0.05509952	          0.00999999	          0.21582253	          0.19001889	          0.03891185	          0.05946463	          0.19502205	          0.00999999	          0.00999999	          0.05088067	          0.00999999	          0.00999999	          0.46637493	          0.24408004	          0.00999999	          0.00999999	          0.01391723	          0.07112139	          0.00999999	          0.05000717	          0.00999999	          0.03230204	          0.00999999	          0.00999999	          0.05839619	          0.09380371	          0.00999999	
          1.15376330	         -5.13777698	          0.43238700	          7.36984450	          1.42081370	          0.84819467	         -0.01024562	         28.25638891	         -1.22357742	         -1.67903870	        -14.80011703	          2.26538171	          0.17437501	        -11.04424286	          0.98356315	          2.97194494	        -23.95599014	          0.41994269	         32.69524088	         -9.72743573	          1.00003178	         -3.51121357	          0.12005144	          0.04670584	          0.00999999	          0.21307690	          0.19571143	          0.04502089	          0.05040597	          0.17981715	          0.00999999	          0.00999999	          0.07118566	          0.00999999	          0.00999999	          0.43949269	          0.24818656	          0.00999999	          0.00999999	          0.01179713	          0.09334086	          0.00999999	          0.04238924	          0.00999999	          0.02738125	          0.00999999	          0.00999999	          0.04950029	          0.07951395	          0.05520459	
          1.16454613	         -5.14167471	          0.49822212	          7.14932865	          1.43487252	          0.85008195	         -0.00974173	         27.83345831	         -1.08066206	         -1.52786288	        -15.80363255	          2.65521777	          0.18907008	         -9.23901820	          1.09968369	          2.56509737	        -28.54762512	         -1.34911147	         31.43449330	         -9.70903549	          1.34739447	         -3.59267601	          0.10176318	          0.03959082	          0.00999999	          0.22343508	          0.18481435	          0.05052376	          0.04272729	          0.15242437	          0.00999999	          0.00999999	          0.08001675	          0.00999999	          0.00999999	          0.40659635	          0.24685355	          0.01896189	          0.00999999	          0.00999999	          0.08727391	          0.01289581	          0.03593179	          0.00999999	          0.02321008	          0.00999999	          0.00999999	          0.04195958	          0.06740104	          0.13960422	
          1.17532896	         -5.14823433	          0.55131519	          6.90769622	          1.44859541	          0.85222822	         -0.00919598	         27.29153862	         -0.91150225	         -1.31197087	        -16.54478188	          3.08948122	          0.24646547	         -7.07603531	          1.21615602	          2.21516533	        -33.59312449	         -3.04166890	         28.85008592	         -9.70701122	          1.68861234	         -3.65627226	          0.08626090	          0.03355968	          0.00999999	          0.23688473	          0.15666031	          0.06372559	          0.03621835	          0.13698144	          0.00999999	          0.00999999	          0.10086874	          0.00999999	          0.00999999	          0.37992177	          0.24364016	          0.05507815	          0.00999999	          0.00999999	          0.07397887	          0.01093131	          0.03045806	          0.00999999	          0.01967433	          0.08963528	          0.00999999	          0.03556759	          0.05713338	          0.26856857	
